<?xml version="1.0" ?><!DOCTYPE svg  PUBLIC '-//W3C//DTD SVG 1.1//EN'  'http://www.w3.org/Graphics/SVG/1.1/DTD/svg11.dtd'><svg enable-background="new 0 0 500 500" height="500px" id="Layer_1" version="1.1" viewBox="0 0 500 500" width="500px" xml:space="preserve" xmlns="http://www.w3.org/2000/svg" xmlns:xlink="http://www.w3.org/1999/xlink"><path clip-rule="evenodd" d="M31.949,431.711c0,20.078,16.264,36.34,36.34,36.34h363.421  c20.078,0,36.34-16.262,36.34-36.34V68.29c0-20.077-16.262-36.34-36.34-36.34H68.29c-20.077,0-36.34,16.264-36.34,36.34V431.711z   M313.599,259.086h-90.855v27.255c0,9.991,8.177,18.172,18.17,18.172h72.685c20.079,0,36.34,16.262,36.34,36.34  c0,20.079-16.261,36.346-36.34,36.346h-90.855c-40.157,0-72.683-32.527-72.683-72.686V150.061c0-20.079,16.262-36.342,36.34-36.342  c20.079,0,36.343,16.264,36.343,36.342v36.34h90.855c20.079,0,36.34,16.264,36.34,36.343  C349.938,242.822,333.678,259.086,313.599,259.086z" fill="#010101" fill-rule="evenodd"/></svg>